<svg xmlns="http://www.w3.org/2000/svg" width="170" height="41" fill="none" xmlns:v="https://vecta.io/nano"><path d="M52.599 29V11.546h11.557v3.043h-7.867v4.159h7.099v3.043h-7.099V29h-3.69zm13.971 0V15.909h3.631V29H66.57zm1.824-14.778c-.54 0-1.003-.179-1.389-.537a1.74 1.74 0 0 1-.571-1.304c0-.5.19-.929.571-1.287.386-.364.849-.546 1.389-.546s1 .182 1.381.546c.386.358.579.787.579 1.287 0 .506-.193.94-.579 1.304-.381.358-.841.537-1.381.537zm8.346 7.21V29h-3.631V15.909h3.46v2.31h.154a3.65 3.65 0 0 1 1.457-1.807c.682-.449 1.509-.673 2.48-.673.909 0 1.702.199 2.378.597s1.202.966 1.577 1.705c.375.733.563 1.608.563 2.625V29h-3.631v-7.687c.006-.801-.199-1.426-.614-1.875-.415-.454-.986-.682-1.713-.682-.489 0-.92.105-1.295.315-.369.21-.659.517-.869.92-.205.398-.31.878-.315 1.44zm16.123 7.781c-.994 0-1.895-.256-2.702-.767-.801-.517-1.437-1.276-1.909-2.276-.466-1.006-.699-2.239-.699-3.699 0-1.5.242-2.747.724-3.741.483-1 1.125-1.747 1.926-2.241.807-.5 1.69-.75 2.65-.75.733 0 1.344.125 1.832.375.494.244.892.551 1.193.92.307.364.54.722.699 1.074h.111v-6.562h3.622V29h-3.579v-2.097h-.153c-.171.364-.412.724-.725 1.082-.307.352-.707.645-1.202.878-.489.233-1.085.349-1.79.349zm1.15-2.889c.585 0 1.08-.159 1.483-.477.409-.324.722-.776.938-1.355.222-.58.332-1.258.332-2.037s-.108-1.454-.324-2.028-.528-1.017-.937-1.33-.906-.469-1.492-.469c-.597 0-1.099.162-1.508.486s-.719.773-.929 1.347-.315 1.239-.315 1.994c0 .761.105 1.435.315 2.02.216.58.526 1.034.929 1.364.409.324.912.486 1.508.486zm16.247-10.415v2.727h-7.884v-2.727h7.884zm-6.094-3.136h3.631v12.205c0 .335.051.597.153.784.102.182.244.31.426.384a1.76 1.76 0 0 0 .648.111 3.1 3.1 0 0 0 .511-.043l.392-.077.571 2.702c-.182.057-.437.122-.767.196-.329.08-.73.128-1.202.145-.875.034-1.642-.082-2.301-.349-.653-.267-1.162-.682-1.525-1.244s-.543-1.273-.537-2.131V12.773zM112.625 29V15.909h3.52v2.284h.136c.239-.812.639-1.426 1.202-1.841.562-.42 1.21-.631 1.943-.631a5.49 5.49 0 0 1 .588.034c.21.023.395.054.554.094v3.222c-.171-.051-.406-.097-.708-.136a6.34 6.34 0 0 0-.826-.06c-.534 0-1.012.116-1.432.349-.415.227-.744.546-.989.955-.238.409-.358.881-.358 1.415V29h-3.63zm15.176.256c-1.346 0-2.505-.273-3.477-.818-.966-.551-1.71-1.329-2.233-2.335-.522-1.011-.784-2.207-.784-3.588 0-1.347.262-2.528.784-3.545s1.259-1.81 2.208-2.378 2.074-.852 3.358-.852c.863 0 1.667.139 2.412.418.75.273 1.403.685 1.96 1.236.562.551 1 1.244 1.312 2.08.313.83.469 1.801.469 2.915v.997h-11.054v-2.25h7.636c0-.523-.113-.986-.341-1.389s-.542-.719-.946-.946c-.397-.233-.86-.349-1.389-.349-.551 0-1.04.128-1.466.384-.42.25-.75.588-.988 1.014-.239.42-.361.889-.367 1.406v2.139c0 .648.12 1.207.358 1.679.245.472.588.835 1.031 1.091s.969.384 1.577.384a3.43 3.43 0 0 0 1.108-.171c.335-.114.622-.284.861-.511s.42-.506.545-.835l3.358.222c-.17.807-.52 1.511-1.048 2.114-.523.597-1.199 1.063-2.028 1.398-.824.33-1.776.494-2.856.494zm12.009-7.824V29h-3.631V15.909h3.461v2.31h.153c.29-.761.776-1.364 1.457-1.807.682-.449 1.509-.673 2.48-.673.91 0 1.702.199 2.378.597s1.202.966 1.577 1.705c.375.733.563 1.608.563 2.625V29h-3.631v-7.687c.006-.801-.199-1.426-.614-1.875-.415-.454-.986-.682-1.713-.682-.489 0-.92.105-1.295.315a2.2 2.2 0 0 0-.87.92c-.204.398-.309.878-.315 1.44zm16.123 7.781c-.994 0-1.895-.256-2.702-.767-.801-.517-1.437-1.276-1.909-2.276-.466-1.006-.699-2.239-.699-3.699 0-1.5.242-2.747.725-3.741.483-1 1.125-1.747 1.926-2.241.807-.5 1.69-.75 2.65-.75.733 0 1.344.125 1.833.375.494.244.892.551 1.193.92.307.364.54.722.699 1.074h.111v-6.562h3.622V29h-3.58v-2.097h-.153c-.171.364-.412.724-.725 1.082-.306.352-.707.645-1.201.878s-1.086.349-1.79.349zm1.15-2.889c.586 0 1.08-.159 1.483-.477.409-.324.722-.776.938-1.355.221-.58.332-1.258.332-2.037s-.108-1.454-.324-2.028-.528-1.017-.937-1.33-.906-.469-1.492-.469c-.596 0-1.099.162-1.508.486s-.719.773-.929 1.347-.315 1.239-.315 1.994c0 .761.105 1.435.315 2.02.216.58.526 1.034.929 1.364.409.324.912.486 1.508.486z" fill="#000"/><circle cx="21" cy="20" r="16" fill="#fff"/><path fill-rule="evenodd" d="M20.684 40c11.046 0 20-8.954 20-20s-8.954-20-20-20-20 8.954-20 20 8.954 20 20 20zm6.239-30.683c.304-1.079-.743-1.717-1.699-1.036L11.877 17.79c-1.037.739-.874 2.21.245 2.21h3.515v-.027h6.85l-5.581 1.969-2.46 8.741c-.304 1.079.743 1.717 1.699 1.035l13.347-9.508c1.037-.739.874-2.21-.245-2.21h-5.33l3.007-10.683z" fill="#000"/></svg>